<?xml version="1.0" encoding="UTF-8" standalone="no"?>
<!-- Created with Inkscape (http://www.inkscape.org/) -->

<svg
   width="62.984428mm"
   height="31.890963mm"
   viewBox="0 0 62.984428 31.890963"
   version="1.1"
   id="svg1"
   xml:space="preserve"
   xmlns="http://www.w3.org/2000/svg"
   xmlns:svg="http://www.w3.org/2000/svg"><defs
     id="defs1" /><g
     id="layer1"
     transform="translate(-76.628058,-43.476011)"><path
       style="fill:#07548f;stroke:none"
       d="m 130.60419,47.618785 h 0.42333 v 0.169333 l -2.87866,0.508 v 3.302 c 0.6362,-0.296969 1.21167,-0.621442 1.94733,-0.488662 0.90601,0.163525 1.42563,0.746582 2.45533,0.643557 0.89608,-0.08966 1.52228,-0.887385 2.45534,-0.594821 0.70242,0.220247 0.98638,0.86095 1.016,1.540593 h 2.96333 c -0.005,-1.660873 -0.83297,-3.509427 -2.45533,-4.169244 -1.03317,-0.420192 -2.15936,-0.380584 -3.21734,-0.741423 v -0.169333 l 0.42334,-0.08467 c -0.006,-0.266867 0.004,-0.599487 -0.21284,-0.795579 -0.39093,-0.353774 -1.19538,-0.340979 -0.63109,-1.146462 0.58692,-0.837786 3.53542,0.81896 3.09622,-1.190561 -0.27276,-1.247962 -1.87146,-0.37224 -2.67563,-0.474418 -0.51665,-0.06565 -0.76596,-0.535037 -1.35466,-0.437903 -0.52121,0.086 -0.78801,0.461346 -1.35467,0.408112 -0.70012,-0.06577 -1.76255,-0.491761 -2.17435,0.336119 -0.23992,0.482319 0.0186,1.149098 0.56601,1.249355 0.71438,0.130847 2.00272,-0.603754 2.45599,0.190368 0.49885,0.873983 -0.34651,0.696937 -0.70013,1.125885 -0.18214,0.220932 -0.14676,0.552866 -0.14752,0.819751 m -47.921331,5.08 c 0.315064,0 0.890476,0.108017 1.134246,-0.135754 0.243448,-0.243448 0.135754,-0.821477 0.135754,-1.134246 v -2.794 c 0,-0.319849 0.103459,-0.871869 -0.08702,-1.148617 -0.185185,-0.269064 -0.972334,-0.334068 -1.131894,-0.0098 -0.19516,0.396614 -0.05109,1.145804 -0.05109,1.581751 v 1.439334 2.201333 m 1.693334,-4.741333 v 3.725333 c 0.654319,0 1.481038,-0.136953 2.115098,0.02692 0.305144,0.07886 0.414217,0.384948 0.68981,0.502904 0.36674,0.156968 1.387606,0.171972 1.75455,0.01176 0.352329,-0.153833 0.266521,-0.65389 0.266541,-0.964912 v -2.709334 c 0,-0.285039 0.114676,-0.879302 -0.196249,-1.03782 -0.874933,-0.446066 -1.63546,0.22426 -2.352572,0.418305 -0.673571,0.182263 -1.579627,0.02685 -2.277178,0.02685 m 38.777331,0 H 89.794859 v 3.894666 h 33.358661 c 0.18159,0.599972 1.80913,0.744167 2.06558,0.156792 0.14131,-0.323639 0.0511,-0.826131 0.0511,-1.172792 0,-0.915683 0.22164,-2.158188 -0.0269,-3.038788 -0.18305,-0.648514 -1.97997,-0.512354 -2.08976,0.160122 m -45.889327,5.164666 c -0.473872,0.101152 -0.836473,1.066431 -0.241457,1.243085 0.395786,0.117504 0.931417,0.02692 1.342124,0.02692 0.896721,0 2.094055,0.210442 2.958368,-0.02692 0.840381,-0.230785 -0.04017,-1.0607 -0.107075,-1.419932 -0.09341,-0.501507 0.607986,-0.680896 0.958706,-0.754486 v -4.402667 c -3.088158,0 -4.910666,2.347645 -4.910666,5.334 m 48.683327,-5.08 v 3.81 c 0.38024,0 1.16036,0.147723 1.47292,-0.09982 0.21266,-0.168429 0.13573,-0.595028 0.13575,-0.83151 4e-5,-0.643227 0.40806,-2.257604 -0.12817,-2.731154 -0.32754,-0.289256 -1.0732,-0.147513 -1.4805,-0.147513 m 9.56734,6.434667 h 1.778 1.10066 c 0.28772,0 0.72412,0.07929 0.98909,-0.05109 0.28911,-0.142263 0.30121,-1.025912 0.0605,-1.216562 -0.31245,-0.247468 -1.17547,-0.08702 -1.55758,-0.08702 -1.28265,0 -2.69243,-0.378511 -2.37066,1.354667 m -58.250667,0.592667 v 8.720666 2.455334 l 0.05109,1.073751 0.79558,0.196249 h 2.032 L 80.90254,67.3797 80.98956,66.07612 v -3.471333 c 0.593485,0 1.347967,-0.122615 1.918262,0.06128 0.513603,0.165614 0.663257,0.785031 1.371522,0.468541 0.39989,-0.178692 0.274215,-0.691017 0.267392,-1.03782 -0.01831,-0.930597 -0.0012,-1.863213 -0.0012,-2.794 0,-0.290867 0.09359,-0.805373 -0.09982,-1.049579 -0.345181,-0.435826 -1.180147,-0.09613 -1.254844,0.372246 H 80.90486 l 0.08467,-3.556 h -3.725333 m 56.387993,3.81 h -2.794 v 1.354666 h 0.84667 c -0.0843,0.75674 -0.94883,1.224512 -1.59979,0.718491 -0.82179,-0.63882 -0.81721,-3.062508 0.32985,-3.379023 0.71267,-0.196652 0.8542,0.432117 1.37656,0.662112 0.48153,0.212018 1.31826,0.05109 1.84071,0.05109 -0.10191,-2.338178 -3.05213,-3.062529 -4.826,-1.991429 -1.09687,0.662316 -1.38086,1.978155 -1.35343,3.176762 0.0195,0.852692 0.18049,1.803366 0.77644,2.451936 1.12649,1.225957 3.55796,1.290815 4.71769,0.08467 0.81744,-0.850155 0.6853,-2.044213 0.6853,-3.129269 m 3.72533,-3.048 c -0.49685,0.646387 -0.90757,1.351788 -1.35492,2.032 -0.25833,0.392787 -0.53785,0.788356 -0.58359,1.27 -0.0366,0.385441 -0.0349,0.825625 0.12099,1.185333 1.01321,2.337797 4.63888,0.978545 3.91642,-1.439333 -0.16258,-0.544091 -0.50437,-0.983417 -0.8289,-1.439334 -0.38529,-0.541277 -0.7413,-1.200663 -1.27,-1.608666 m -50.969323,0.08467 v 6.858 h 2.031999 v -1.862666 c 0.913782,0 1.923997,0.08901 2.709008,-0.477361 1.279555,-0.923182 1.221166,-3.106529 0,-4.049562 -1.151428,-0.889181 -3.368877,-0.468411 -4.741007,-0.468411 m 10.752666,0 c 0,1.609863 -0.495322,4.238023 0.334878,5.672602 1.009843,1.745002 4.501619,1.740734 5.436369,-0.0846 0.32068,-0.626225 0.24008,-1.351686 0.24008,-2.032 v -3.556 h -2.032 c 0,1.377392 0.0663,2.773177 -0.003,4.148667 -0.0249,0.49055 -0.30888,1.007597 -0.84326,1.077932 -0.612855,0.08066 -0.994315,-0.451836 -1.075188,-0.993265 -0.202492,-1.355645 -0.02548,-2.862425 -0.02548,-4.233334 h -2.031999 m 6.773327,0 v 6.858 h 1.86267 v -3.81 l 1.30541,2.368314 1.06525,0.171686 1.27,-2.54 v 3.81 h 1.86267 v -6.858 l -2.01397,0.05109 -0.54693,0.795579 -0.9951,2.201333 h -0.16933 l -0.96727,-2.116666 -0.57476,-0.880246 -2.09864,-0.05109 m 8.128,0 v 6.858 c 1.45312,0 3.63493,0.404831 4.9106,-0.42072 1.35864,-0.87924 0.99311,-2.988339 -0.67727,-3.13528 V 59.0488 c 1.38624,-0.142754 1.76395,-2.026912 0.59143,-2.753429 -1.25589,-0.778175 -3.40487,-0.379238 -4.82476,-0.379238 m 6.18067,0 v 6.858 h 2.032 v -6.858 h -2.032 m 2.87866,6.858 h 1.94734 v -3.386666 l 1.71704,2.370666 0.76586,0.964913 1.49643,0.05109 v -6.858 h -1.94733 v 3.302 c -0.74653,-0.86281 -1.40113,-2.654422 -2.38629,-3.214982 -0.27896,-0.158734 -1.37648,-0.227066 -1.54196,0.109231 -0.23141,0.470295 -0.0511,1.400961 -0.0511,1.920418 0,1.567776 0.10754,3.178781 0,4.741333 M 92.419526,56.000785 v 6.773333 h 4.656666 v -1.693333 h -2.624667 v -5.08 h -2.031999 m 21.674664,2.624667 v -1.27 c 0.34162,0 0.78525,-0.07021 1.0957,0.09982 0.38167,0.209034 0.46741,0.804028 0.0703,1.046835 -0.32449,0.198399 -0.80244,0.123342 -1.166,0.123342 M 88.440192,57.440118 c 0.301315,0 0.639406,-0.03865 0.930026,0.05527 0.707634,0.228672 0.801241,1.326536 0.246096,1.76389 -0.233148,0.183679 -0.862138,0.363626 -1.089104,0.07709 -0.287013,-0.362346 -0.08702,-1.445721 -0.08702,-1.896246 m 25.654,3.894667 v -1.439333 c 0.38517,0 0.91585,-0.09142 1.26503,0.09982 0.45406,0.248676 0.44869,0.979755 -0.004,1.227928 -0.35474,0.194369 -0.87063,0.111582 -1.26079,0.111582 M 99.616192,71.664118 c 0.125189,2.871156 5.407928,3.027634 5.816518,0.254 0.23713,-1.609633 -0.99501,-2.203188 -2.34519,-2.420578 -0.34544,-0.05562 -1.45897,-0.192758 -1.17801,-0.787869 0.12813,-0.271397 0.47895,-0.368502 0.75468,-0.326908 0.39538,0.05964 0.58122,0.444789 0.94571,0.545106 0.50043,0.137731 1.16094,0.02692 1.67896,0.02692 -0.056,-2.63016 -5.03397,-2.935844 -5.475505,-0.423333 -0.310477,1.766729 0.931695,2.366958 2.427505,2.646748 0.34454,0.06444 1.37641,0.244328 1.04037,0.815438 -0.57508,0.977356 -1.43305,-0.15429 -1.98053,-0.302669 -0.50374,-0.136524 -1.1636,-0.02685 -1.684508,-0.02685 m -6.858,-1.524 c -1.667686,0.490738 -2.150199,2.788274 -0.423333,3.564036 0.748866,0.336413 1.680954,0.302038 2.455333,0.0831 0.268609,-0.07594 0.566221,-0.310929 0.845426,-0.310118 0.256153,7.44e-4 0.433312,0.249569 0.686152,0.291109 0.563338,0.09255 1.199555,0.01254 1.770422,0.01254 l -1.095375,-1.354667 0.245114,-0.931333 0.172928,-1.524 h -1.524 l -0.169334,1.27 -0.846666,-1.016 c 0.334501,-0.166641 0.638074,-0.37667 0.8645,-0.680667 0.168692,-0.226482 0.280872,-0.479348 0.322988,-0.758666 0.407009,-2.699272 -4.819248,-2.274427 -4.083074,0.169333 0.140255,0.465579 0.508791,0.79723 0.778919,1.185333 M 106.05086,66.92279 v 6.858 h 4.826 v -1.608667 h -2.794 v -1.100666 h 2.62466 v -1.439334 h -2.62466 v -1.100666 h 2.794 v -1.524 h 0.0847 l 1.60867,6.773333 h 2.032 l 1.016,-3.81 1.016,3.81 1.89957,-0.08702 0.55576,-1.860315 1.18534,-4.910667 -2.05382,0.08702 -0.25302,1.013649 -0.4025,3.048 c -0.62054,-0.654046 -0.68617,-2.182932 -0.89965,-3.048 -0.0699,-0.283322 -0.0808,-0.826658 -0.33344,-1.013649 -0.33151,-0.245396 -1.16205,-0.08702 -1.56091,-0.08702 l -0.64571,2.878667 -0.45495,1.27 -0.59267,-4.148667 h -7.02733 m 14.478,0 v 6.858 h 4.826 v -1.608667 h -2.794 v -1.100666 h 2.62466 v -1.439334 h -2.62466 v -1.100666 h 2.794 v -1.608667 h -4.826 m 5.50333,0.08467 v 6.773333 h 2.032 v -2.286 h 0.59267 c 0.0917,0.514614 0.61588,2.016081 1.11869,2.234913 0.5646,0.245724 1.57026,0.05109 2.18331,0.05109 -0.2661,-0.639119 -1.22704,-1.766378 -1.16496,-2.447755 0.0301,-0.330138 0.50421,-0.597589 0.6876,-0.85431 0.4026,-0.563593 0.43589,-1.38852 0.21421,-2.031935 -0.70887,-2.057446 -3.98804,-1.439333 -5.66352,-1.439333 m -48.852664,2.370666 c 0,2.990874 1.816756,5.334 4.910667,5.334 v -4.402666 c -0.350527,-0.05277 -1.071728,-0.260553 -0.965501,-0.754487 0.07684,-0.357272 0.953955,-1.189229 0.113869,-1.419931 -0.864315,-0.237358 -2.061644,-0.02692 -2.958368,-0.02692 -0.410707,0 -0.946336,-0.09059 -1.342123,0.02692 -0.595018,0.176653 -0.232413,1.141935 0.241456,1.243084 m 16.684296,-1.217605 c 0.76516,-0.283239 1.007786,0.952267 0.330045,1.202709 -0.596612,0.220465 -0.939387,-0.977152 -0.330045,-1.202709 m 34.200368,1.894939 v -1.608667 c 0.36671,0 0.84727,-0.0785 1.18161,0.09982 0.54808,0.292326 0.54808,1.116692 0,1.40902 -0.33434,0.17833 -0.81489,0.09982 -1.18161,0.09982 m -45.465997,-0.254 v 2.201333 1.439333 c 0,0.435945 -0.144072,1.185137 0.05109,1.581751 0.15956,0.324267 0.94671,0.259263 1.131895,-0.0098 0.190476,-0.276751 0.08702,-0.828766 0.08702,-1.148617 v -2.794 c 0,-0.312769 0.107693,-0.890799 -0.135754,-1.134246 -0.243771,-0.243771 -0.819183,-0.135754 -1.134246,-0.135754 m 1.778,1.185333 v 3.725333 c 0.654319,0 1.481038,-0.13695 2.115098,0.02692 0.305144,0.07886 0.414215,0.384948 0.68981,0.502905 0.366745,0.156967 1.387603,0.171971 1.75455,0.01176 0.352329,-0.153831 0.266521,-0.653891 0.266541,-0.964913 v -2.709333 c 0,-0.285043 0.114676,-0.879301 -0.196249,-1.037821 -0.874931,-0.446063 -1.635463,0.224258 -2.352572,0.418303 -0.673573,0.182265 -1.579627,0.02685 -2.277178,0.02685 m 9.227751,0.123734 c 0.909366,0.214175 1.436938,1.78372 0.0012,1.45155 -0.759008,-0.17561 -0.739107,-1.625333 -0.0012,-1.45155 z"
       id="path1" /></g></svg>
